 http://img202.imageshack.us/img202/6436/popperspenguins.jpg


Verenigde Staten
Komedie
94 minuten

geregisseerd door Mark Waters
met Jim Carrey, Carla Gugino en Angela Lansbury

Mr. Popper is een machtige zakenman uit New York, die plotseling zes pinguïns erft van zijn vader. Hij verandert zijn appartement in een wonderlijke winterwereld. Het blijkt niet makkelijk te zijn om voor de dieren te zorgen, maar gaandeweg gaat het hem steeds beter af. Ondertussen leert Popper ook het belang van familie en vrienden kennen. Zijn beroepsmatige en zakelijke kant begint langzaam af te brokkelen.





Screenshots:
 
http://img834.imageshack.us/img834/2059/screenshot1ch.jpg
 
http://img443.imageshack.us/img443/9841/screenshot2hm.jpg
 
http://img233.imageshack.us/img233/6026/screenshot3km.jpg
 
http://img543.imageshack.us/img543/1401/screenshot4qm.jpg



INFO;


Format                                   : AVI
Format/Info                              : Audio Video Interleave
File size                                : 700 MiB
Duration                                 : 1h 29mn
Overall bit rate mode                    : Variable
Overall bit rate                         : 1 096 Kbps
Writing application                      : VirtualDubMod 1.5.4.1 (build 2178/release)
Writing library                          : VirtualDubMod build 2178/release

Video
ID                                       : 0
Format                                   : MPEG-4 Visual
Format profile                           : Advanced Simple@L5
Format settings, BVOP                    : 1
Format settings, QPel                    : No
Format settings, GMC                     : No warppoints
Format settings, Matrix                  : Custom
Codec ID                                 : XVID
Codec ID/Hint                            : XviD
Duration                                 : 1h 29mn
Bit rate                                 : 969 Kbps
Width                                    : 720 pixels
Height                                   : 400 pixels
Display aspect ratio                     : 16:9
Frame rate                               : 25.000 fps
Color space                              : YUV
Chroma subsampling                       : 4:2:0
Bit depth                                : 8 bits
Scan type                                : Progressive
Compression mode                         : Lossy
Bits/(Pixel*Frame)                       : 0.135
Stream size                              : 619 MiB (88%)
Writing library                          : XviD 64

Audio
ID                                       : 1
Format                                   : MPEG Audio
Format version                           : Version 1
Format profile                           : Layer 3
Mode                                     : Joint stereo
Mode extension                           : MS Stereo
Codec ID                                 : 55
Codec ID/Hint                            : MP3
Duration                                 : 1h 29mn
Bit rate mode                            : Variable
Bit rate                                 : 114 Kbps
Nominal bit rate                         : 128 Kbps
Channel(s)                               : 2 channels
Sampling rate                            : 48.0 KHz
Compression mode                         : Lossy
Stream size                              : 73.1 MiB (10%)
Alignment                                : Aligned on interleaves
Interleave, duration                     : 24 ms (0.60 video frame)
Interleave, preload duration             : 160 ms




 
http://www.imdb.com/title/tt1396218/ 
http://www.moviemeter.nl/film/73383




Deze film wordt u aangeboden door het DutchReleaseTeam.
Voor de reviews van de nieuwste films, muziek, series, games etc
ga dan eens naar http://www.hetmultimediacafe.be

DutchReleaseteam = Hardcoded Dutch Subs